<svg xmlns="http://www.w3.org/2000/svg" viewBox="0 0 31.96 31.96"><defs><style>.cls-1{fill:#2b353a;}.cls-2{fill:#fdcd0d;}</style></defs><title>Asset 1</title><g id="Layer_2" data-name="Layer 2"><g id="Layer_1-2" data-name="Layer 1"><rect class="cls-1" width="31.96" height="31.96" rx="7.1"/><path class="cls-2" d="M15.8,6a2.51,2.51,0,0,1,2.44,2.64h0c0,.14,0,.29,0,.43h0a6.74,6.74,0,0,1-1.72,3.53h0a6.09,6.09,0,0,0,1.77.87h0C19.58,10.37,21.36,9,23,9h0a2.27,2.27,0,0,1,1.79.82h0a2.25,2.25,0,0,1,.52,1.46h0c0,1.84-1.94,3.65-5.14,3.65h-.24a9,9,0,0,1-.92-.08h0l-.18.53h0A21.06,21.06,0,0,0,18,21.62h0c0,1.71.13,3.28.23,4.54h0a.6.6,0,0,1-.57.64h0a.59.59,0,0,1-.63-.56h0c-.09-1.24-.23-2.84-.23-4.62h0a21.93,21.93,0,0,1,.9-6.62h0a3.26,3.26,0,0,1,.15-.44h0a7.14,7.14,0,0,1-2.23-1.15h0a7.78,7.78,0,0,1-1.74,1.06h0c.37,1,.71,2.13,1,3.39h0a26.74,26.74,0,0,1,.63,6.35h0c0,2.51-.2,4.52-.2,4.54h0a.6.6,0,0,1-.66.53h0a.6.6,0,0,1-.54-.65h0s.2-2,.2-4.42h0a24.91,24.91,0,0,0-.6-6h0a33.65,33.65,0,0,0-1-3.32h0a7.07,7.07,0,0,1-1.56.23h-.24c-2.61,0-4-1.74-4-3.3h0a2,2,0,0,1,1.64-2h0a3.57,3.57,0,0,1,.65-.06h0A4.16,4.16,0,0,1,12.7,12h0a11.66,11.66,0,0,1,.71,1.37h0a5.93,5.93,0,0,0,1.31-.79h0a5.33,5.33,0,0,1-1.41-3.48h0a4.38,4.38,0,0,1,.2-1.33h0A2.41,2.41,0,0,1,15.77,6h0ZM17,8.89a1.49,1.49,0,0,0,0-.28h0A1.31,1.31,0,0,0,15.8,7.17h0a1.18,1.18,0,0,0-1.14.95h0a3.22,3.22,0,0,0-.15,1h0a4,4,0,0,0,1.09,2.66h0A5.47,5.47,0,0,0,17,8.89Zm7.09,2.37a1.09,1.09,0,0,0-.24-.69h0a1.08,1.08,0,0,0-.87-.38h0c-.84,0-2.34.85-3.53,3.49h0l.5,0h.2c2.78,0,3.93-1.52,3.94-2.45ZM11.68,12.63c-.78-1.22-1.53-1.72-2.49-1.73h0a2.53,2.53,0,0,0-.46,0h0c-.42.08-.6.34-.62.85h0c0,.84.75,2.08,2.82,2.09h.19a6.13,6.13,0,0,0,1.15-.14h0a11.2,11.2,0,0,0-.59-1.11Z"/><path class="cls-2" d="M16,1.5a.5.5,0,0,1,.5.5v.8a.5.5,0,0,1-.5.5h0a.5.5,0,0,1-.5-.5V2a.5.5,0,0,1,.5-.5Z"/><path class="cls-2" d="M28,8.14a.49.49,0,0,1-.17.68l-.69.42a.49.49,0,0,1-.68-.16h0a.5.5,0,0,1,.16-.69L27.35,8a.5.5,0,0,1,.69.17Z"/><path class="cls-2" d="M4.17,8.14a.5.5,0,0,0,.16.68L5,9.24a.5.5,0,0,0,.69-.16h0a.51.51,0,0,0-.16-.69L4.86,8a.5.5,0,0,0-.69.17Z"/><path class="cls-2" d="M9.1,3.54a.5.5,0,0,0-.1.7l.48.65a.51.51,0,0,0,.7.11h0a.5.5,0,0,0,.1-.7L9.8,3.65a.51.51,0,0,0-.7-.11Z"/><path class="cls-2" d="M23.23,3.58a.5.5,0,0,1,.11.69l-.48.65a.5.5,0,0,1-.7.11h0a.51.51,0,0,1-.11-.7l.48-.65a.5.5,0,0,1,.7-.1Z"/></g></g></svg>