<svg id="Layer_1" data-name="Layer 1" xmlns="http://www.w3.org/2000/svg" viewBox="0 0 349.11 78.19"><defs><style>.cls-1{fill:#fff;}.cls-2{fill:#fccd0c;}</style></defs><title>Brightizen_Final_16042019_white</title><path class="cls-1" d="M221.44,16.12a9.28,9.28,0,0,1-5.74,8.59h0v1.92A1.67,1.67,0,0,1,214,28.29h-3.79a1.66,1.66,0,0,1-1.66-1.66h0V24.71a9.29,9.29,0,0,1-5.75-8.59h0a9.3,9.3,0,0,1,9.31-9.3h0a9.3,9.3,0,0,1,9.3,9.3Zm-7.6,8a.92.92,0,0,1,.64-.88h0a7.44,7.44,0,0,0,5.1-7.07h0a7.45,7.45,0,0,0-7.44-7.45h0a7.46,7.46,0,0,0-7.45,7.45h0a7.43,7.43,0,0,0,5.1,7.07h0l-.29.88h0l.29-.88a.91.91,0,0,1,.64.88h0v2.37h3.41V24.07Z"/><path class="cls-1" d="M209.67,28.08a1.45,1.45,0,0,1,1.6-1.23H213a1.45,1.45,0,0,1,1.6,1.23v1.67A1.45,1.45,0,0,1,213,31h-1.72a1.45,1.45,0,0,1-1.6-1.23Z"/><path class="cls-2" d="M223.58,15.3a.58.58,0,0,1,.58-.58H227a.58.58,0,0,1,.57.58h0a.57.57,0,0,1-.57.57h-2.88a.57.57,0,0,1-.58-.57Z"/><path class="cls-2" d="M196.4,15.3a.58.58,0,0,1,.58-.58h3.21a.58.58,0,0,1,.57.58h0a.57.57,0,0,1-.57.57H197a.57.57,0,0,1-.58-.57Z"/><path class="cls-2" d="M211.84,0a.58.58,0,0,1,.57.58V4.15a.58.58,0,0,1-.57.57h0a.57.57,0,0,1-.57-.57V.58a.57.57,0,0,1,.57-.58Z"/><path class="cls-2" d="M199.83,4.78a.58.58,0,0,1,.82,0l2.44,2.34a.57.57,0,0,1,0,.8h0a.57.57,0,0,1-.81,0l-2.44-2.34a.57.57,0,0,1,0-.81Z"/><path class="cls-2" d="M223.66,5a.57.57,0,0,0-.81,0l-2.21,2.1a.56.56,0,0,0,0,.8h0a.57.57,0,0,0,.81,0l2.21-2.1a.57.57,0,0,0,0-.81Z"/><path class="cls-2" d="M212,13a1.37,1.37,0,0,1,1.32,1.43h0a1.93,1.93,0,0,1,0,.24h0a3.67,3.67,0,0,1-.93,1.91h0a3.18,3.18,0,0,0,1,.47h0c.71-1.66,1.67-2.39,2.56-2.41h0a1.2,1.2,0,0,1,1,.44h0a1.17,1.17,0,0,1,.29.79h0c0,1-1.05,2-2.78,2h-.14a4.07,4.07,0,0,1-.49,0h0c0,.1-.07.19-.1.29h0a11.12,11.12,0,0,0-.46,3.39h0c0,.93.08,1.78.13,2.46h0a.34.34,0,0,1-.31.35h0a.33.33,0,0,1-.34-.31h0c-.05-.67-.13-1.54-.13-2.5h0a12,12,0,0,1,.49-3.58h0c0-.09.05-.17.08-.24h0a3.92,3.92,0,0,1-1.2-.63h0a4,4,0,0,1-1,.58h0c.2.53.38,1.15.57,1.83h0a14.56,14.56,0,0,1,.34,3.44h0c0,1.36-.11,2.45-.11,2.46h0a.33.33,0,0,1-.36.29h0a.33.33,0,0,1-.29-.35h0s.11-1.07.11-2.4h0a13.75,13.75,0,0,0-.32-3.27h0c-.18-.68-.37-1.28-.55-1.8h0a4.6,4.6,0,0,1-.84.13h-.14a2,2,0,0,1-2.18-1.78h0A1.08,1.08,0,0,1,208,15h0l.35,0h0a2.24,2.24,0,0,1,1.9,1.23h0a7.45,7.45,0,0,1,.39.75h0a3.28,3.28,0,0,0,.7-.43h0a3,3,0,0,1-.76-1.88h0a2.31,2.31,0,0,1,.11-.73h0a1.31,1.31,0,0,1,1.22-1h0Zm.66,1.59a.92.92,0,0,0,0-.16h0a.69.69,0,0,0-.67-.77h0a.63.63,0,0,0-.62.51h0a1.89,1.89,0,0,0-.08.53h0a2.24,2.24,0,0,0,.59,1.44h0a2.9,2.9,0,0,0,.77-1.55Zm3.84,1.28a.53.53,0,0,0-.14-.37h0a.52.52,0,0,0-.46-.21h0c-.46,0-1.27.46-1.92,1.89h0l.27,0h.12c1.5,0,2.13-.83,2.13-1.33Zm-6.73.74c-.43-.66-.83-.93-1.35-.93h0a1.1,1.1,0,0,0-.25,0h0c-.23,0-.32.18-.34.46h0c0,.45.41,1.12,1.53,1.13h.1a3.88,3.88,0,0,0,.62-.08h0a6.61,6.61,0,0,0-.31-.6Z"/><path class="cls-1" d="M8.68,6.65V29.3H29.4c4.05,0,7.24.9,9.6,2.69a8.47,8.47,0,0,1,3.52,7.08V56.38q0,9.91-13.22,9.92H14.06a19.3,19.3,0,0,1-10-2.42C1.37,62.27,0,59.7,0,56.18V6.65Zm25.16,48.2V40.74q0-5.18-7.05-5.18h-16c-1.41,0-2.12.53-2.12,1.58V55.2q0,4.74,7.6,4.73H26.79c2.63,0,4.53-.49,5.72-1.48C33.4,57.86,33.84,56.66,33.84,54.85Z"/><path class="cls-1" d="M85.94,66.2H78.31V33.59h7.63Zm0-43.28V28.6H78.66V22.92Z"/><rect class="cls-1" x="208.48" y="33.36" width="7.63" height="32.99"/><path class="cls-1" d="M262.26,37.44a3.54,3.54,0,0,1-1.61,3L233.76,60.63h27.41v5.7H230.12a10.1,10.1,0,0,1-4.81-1.07,3.3,3.3,0,0,1-2-3c0-1,.71-2.09,2.12-3.22L251.59,39H224.14V33.36h31.18C259.94,33.36,262.26,34.72,262.26,37.44Z"/><path class="cls-1" d="M306.31,46.37l-29.23,8.74v1.1A4.08,4.08,0,0,0,279,60a10.64,10.64,0,0,0,4.64.71h22.55v5.66h-24q-6.21,0-9.15-1.89a7.67,7.67,0,0,1-3.74-7.11V41.72q0-8.38,12.19-8.38h13.4q11.37,0,11.37,8.91Zm-7.81-3.2v-.48c0-2.52-2-3.78-6.07-3.78H284q-7,0-7,4.26v6.45Z"/><path class="cls-1" d="M337.93,66.32l3.64-20.95c0-3.36-2.15-5-6.42-5h-8.5q-6.51,0-6.51,5l3.64,20.95h-7.63L312.51,43.4q0-10.11,11.62-10.1h13.44q11.55,0,11.54,10.1l-3.64,22.92Z"/><path class="cls-1" d="M72.75,39c-6,0-9.51.12-10.49.35a4.07,4.07,0,0,0-3.1,4.35v22.4H51.1V42.22q0-8.74,12.62-8.74h9Z"/><path class="cls-1" d="M130.41,69.26q0,8.94-13.24,8.93H103.5V72.52h12.7q4.15,0,5.53-1.65a8.1,8.1,0,0,0,.88-4.41H105.48c-4.28,0-7.5-.72-9.65-2.18a6.92,6.92,0,0,1-3.24-6.07V42.75c0-3.11,1-5.42,2.82-6.93s5-2.27,9.36-2.27H117.7q6.64,0,9.67,2t3,6.61Zm-7.71-9.7V44c0-1.64-.42-2.75-1.28-3.34a8.35,8.35,0,0,0-5.22-1.53h-9.74q-6.17,0-6.16,4.53V56.51q0,4.32,6.82,4.32H121C122.13,60.83,122.7,60.41,122.7,59.56Z"/><path class="cls-1" d="M145.25,22.23V33.35h17.4q12.43,0,12.44,10.58v22.4h-7.71V46.41c0-2.21-.45-3.77-1.37-4.65s-2.54-1.33-4.87-1.33h-14c-1.28,0-1.91.59-1.91,1.77V66.42h-7.79V22.23Z"/><path class="cls-1" d="M200.66,39.08h-9.88V66.3H183V21.9h7.79V33.5h9.88Z"/></svg>