<svg xmlns="http://www.w3.org/2000/svg" viewBox="0 0 343.11 97.34"><defs><style>.cls-1{fill:#5cba47;}</style></defs><title>Asset 1</title><g id="Layer_2" data-name="Layer 2"><g id="Layer_1-2" data-name="Layer 1"><path class="cls-1" d="M8.68,25.8V48.44H29.4c4.05,0,7.24.9,9.6,2.69a8.48,8.48,0,0,1,3.52,7.08V75.53q0,9.91-13.22,9.91H14.06A19.2,19.2,0,0,1,4.09,83C1.37,81.41,0,78.85,0,75.33V25.8ZM33.84,74V59.89q0-5.19-7.05-5.18h-16c-1.41,0-2.12.53-2.12,1.58V74.34q0,4.74,7.6,4.74H26.79c2.63,0,4.53-.49,5.72-1.48C33.4,77,33.84,75.81,33.84,74Z"/><path class="cls-1" d="M85.94,85.35H78.31V52.73h7.63Zm0-43.29v5.69H78.66V42.06Z"/><path class="cls-1" d="M256.26,56.59a3.55,3.55,0,0,1-1.61,3L227.76,79.78h27.41v5.7h-31a10.22,10.22,0,0,1-4.81-1.07,3.3,3.3,0,0,1-2-3c0-1,.71-2.09,2.12-3.23l26.2-20H218.14V52.5h31.18C253.94,52.5,256.26,53.86,256.26,56.59Z"/><path class="cls-1" d="M300.31,65.52l-29.23,8.74v1.1A4.09,4.09,0,0,0,273,79.13a10.83,10.83,0,0,0,4.64.7h22.55V85.5h-24q-6.21,0-9.15-1.89-3.73-2.23-3.74-7.12V60.87q0-8.38,12.19-8.39h13.4q11.37,0,11.37,8.91Zm-7.81-3.21v-.48c0-2.52-2-3.77-6.07-3.77H278q-7,0-7,4.25v6.46Z"/><path class="cls-1" d="M331.93,85.46l3.64-20.94c0-3.37-2.15-5-6.42-5h-8.5q-6.51,0-6.51,5l3.64,20.94h-7.63l-3.64-22.92q0-10.09,11.62-10.1h13.44q11.55,0,11.54,10.1l-3.64,22.92Z"/><path class="cls-1" d="M211.86,85h-7.63V52.38h7.63Z"/><path class="cls-1" d="M72.75,58.18c-6,0-9.51.11-10.49.34a4.07,4.07,0,0,0-3.1,4.35v22.4H51.1V61.37q0-8.74,12.62-8.75h9Z"/><path class="cls-1" d="M130.41,88.4q0,8.94-13.24,8.94H103.5V91.67h12.7q4.15,0,5.53-1.66a8.06,8.06,0,0,0,.88-4.4H105.48q-6.42,0-9.65-2.18a6.94,6.94,0,0,1-3.24-6.08V61.89c0-3.11,1-5.41,2.82-6.93s5-2.26,9.36-2.26H117.7q6.64,0,9.67,1.95t3,6.6Zm-7.71-9.7V63.12c0-1.64-.42-2.76-1.28-3.35a8.4,8.4,0,0,0-5.22-1.52h-9.74q-6.17,0-6.16,4.53V75.65c0,2.89,2.27,4.32,6.82,4.32H121C122.13,80,122.7,79.55,122.7,78.7Z"/><path class="cls-1" d="M145.25,41.38V52.49h17.4q12.43,0,12.44,10.58V85.48h-7.71V65.55c0-2.21-.45-3.76-1.37-4.65s-2.54-1.33-4.87-1.33h-14c-1.28,0-1.91.6-1.91,1.78V85.56h-7.79V41.38Z"/><path class="cls-1" d="M188.71,13.84c3.6,0,7.06,3.2,7.06,8.16h0a12.34,12.34,0,0,1-.07,1.35h0a21.49,21.49,0,0,1-5,10.9h0a16.64,16.64,0,0,0,5.11,2.7h0c3.8-9.48,9-13.68,13.69-13.79h0a6.44,6.44,0,0,1,5.17,2.52h0a7.28,7.28,0,0,1,1.51,4.52h0c-.08,5.71-5.6,11.32-14.85,11.32h-.72a25.57,25.57,0,0,1-2.65-.25h0c-.17.52-.35,1.07-.5,1.65h0A68.22,68.22,0,0,0,195,62.27h0c0,5.3.39,10.16.65,14h0a1.8,1.8,0,0,1-1.62,2h0a1.76,1.76,0,0,1-1.84-1.72h0c-.25-3.85-.67-8.82-.67-14.31h0a72.79,72.79,0,0,1,2.6-20.49h0c.14-.46.28-.91.44-1.36h0a20.34,20.34,0,0,1-6.43-3.56h0a21.68,21.68,0,0,1-5,3.27h0c1.06,3.09,2,6.59,3,10.5h0c1.46,6,1.83,13.31,1.83,19.66h0c0,7.75-.59,14-.59,14h0A1.77,1.77,0,0,1,185.48,86h0a1.82,1.82,0,0,1-1.57-2h0s.57-6.09.57-13.66h0c0-6.19-.38-13.34-1.72-18.71h0q-1.41-5.84-2.94-10.25h0a21.49,21.49,0,0,1-4.49.71h-.72c-7.53,0-11.61-5.38-11.63-10.19h0c-.07-2.83,1.65-5.8,4.73-6.3h0a11.07,11.07,0,0,1,1.89-.17h0c4.25,0,7.65,2.74,10.13,7.09h0a38.61,38.61,0,0,1,2.08,4.22h0a17.65,17.65,0,0,0,3.78-2.42h0a17.12,17.12,0,0,1-4.08-10.78h0a14.64,14.64,0,0,1,.58-4.12h0c1-3.56,3.79-5.54,6.53-5.54h.09Zm3.53,9.05a5.88,5.88,0,0,0,.07-.89h0c-.05-3.08-1.86-4.39-3.6-4.45h0c-1.34,0-2.59.72-3.3,2.95h0a10.55,10.55,0,0,0-.42,3h0a13,13,0,0,0,3.15,8.24h0a17.43,17.43,0,0,0,4.1-8.85Zm20.49,7.31a3.43,3.43,0,0,0-.7-2.13h0a3,3,0,0,0-2.5-1.18h0c-2.44-.1-6.76,2.65-10.21,10.8h0q.7.08,1.44.09h0c.2,0,.4,0,.6,0h0c8,0,11.36-4.72,11.37-7.6Zm-35.94,4.24c-2.26-3.77-4.42-5.3-7.19-5.34h0a7.32,7.32,0,0,0-1.35.13h0c-1.2.25-1.71,1-1.79,2.63h0c0,2.6,2.18,6.42,8.15,6.47h.57a17,17,0,0,0,3.31-.46h0a36.59,36.59,0,0,0-1.7-3.43Z"/><path class="cls-1" d="M189.18,0a1.5,1.5,0,0,1,1.44,1.55V4a1.5,1.5,0,0,1-1.44,1.55h0A1.5,1.5,0,0,1,187.73,4V1.55A1.5,1.5,0,0,1,189.18,0Z"/><path class="cls-1" d="M224.1,20.55a1.61,1.61,0,0,1-.48,2.12l-2,1.3a1.4,1.4,0,0,1-2-.51h0a1.62,1.62,0,0,1,.48-2.13l2-1.3a1.39,1.39,0,0,1,2,.52Z"/><path class="cls-1" d="M155.07,20.55a1.61,1.61,0,0,0,.48,2.12l2,1.3a1.4,1.4,0,0,0,2-.51h0a1.61,1.61,0,0,0-.48-2.13l-2-1.3a1.39,1.39,0,0,0-2,.52Z"/><path class="cls-1" d="M169.34,6.34A1.62,1.62,0,0,0,169,8.5l1.38,2a1.39,1.39,0,0,0,2,.32h0a1.61,1.61,0,0,0,.31-2.16l-1.39-2a1.38,1.38,0,0,0-2-.32Z"/><path class="cls-1" d="M210.2,6.43a1.62,1.62,0,0,1,.31,2.16l-1.39,2a1.39,1.39,0,0,1-2,.32h0a1.62,1.62,0,0,1-.31-2.16l1.39-2a1.39,1.39,0,0,1,2-.33Z"/></g></g></svg>